<svg width="107" height="28" viewBox="0 0 107 28" fill="none" xmlns="http://www.w3.org/2000/svg">
<g id="&#240;&#159;&#166;&#134; icon &#34;slack&#34;">
<path id="Vector" d="M34.0964 21.9534L35.4225 18.8734C36.8555 19.9429 38.7591 20.499 40.6413 20.499C42.0316 20.499 42.9085 19.9642 42.9085 19.1515C42.8871 16.8843 34.5884 18.6595 34.5242 12.9702C34.5028 10.0828 37.0694 7.85836 40.7055 7.85836C42.8657 7.85836 45.0259 8.39307 46.5659 9.61222L45.3254 12.7563C43.9137 11.858 42.1599 11.2164 40.4916 11.2164C39.358 11.2164 38.6094 11.7511 38.6094 12.4355C38.6308 14.6599 46.9937 13.4408 47.0792 18.8734C47.0792 21.825 44.5768 23.8997 40.9835 23.8997C38.3527 23.8997 35.9358 23.2795 34.0964 21.9534ZM84.9796 17.7612L88.6371 19.7931C87.2682 22.2528 84.6588 23.8997 81.643 23.8997C77.2156 23.8997 73.6223 20.3065 73.6223 15.879C73.6223 11.4516 77.2156 7.85836 81.643 7.85836C84.6374 7.85836 87.2682 9.52666 88.6371 11.9649L84.9796 13.9969C84.3166 12.8419 83.0761 12.0505 81.643 12.0505C79.5256 12.0505 77.8145 13.7616 77.8145 15.879C77.8145 17.9965 79.5256 19.7076 81.643 19.7076C83.0761 19.7076 84.3166 18.9162 84.9796 17.7612ZM48.9186 1.20654H53.4958V23.6003H48.9186V1.20654ZM90.4337 1.20654H95.0108V14.3605L100.187 8.17919H105.791L99.3955 15.6224L106.304 23.6003H100.444L95.0108 16.8843V23.6003H90.4337V1.20654ZM67.0989 17.804V14.0182C66.4358 12.906 65.067 12.0505 63.527 12.0505C61.4095 12.0505 59.6984 13.7616 59.6984 15.879C59.6984 17.9965 61.4095 19.7076 63.527 19.7076C65.067 19.7076 66.4358 18.8948 67.0989 17.804ZM67.0989 8.17919H71.676V23.5789H67.0989V21.7609C66.3503 23.0228 64.4895 23.8997 62.5431 23.8997C58.5221 23.8997 55.3566 20.3065 55.3566 15.8577C55.3566 11.4088 58.5221 7.85836 62.5431 7.85836C64.4895 7.85836 66.3503 8.73529 67.0989 9.99721V8.17919Z" fill="#A7BCB4"/>
<path id="Vector_2" d="M5.79988 17.7826C5.79988 19.344 4.53796 20.6059 2.9766 20.6059C1.41524 20.6059 0.15332 19.344 0.15332 17.7826C0.15332 16.2213 1.41524 14.9594 2.9766 14.9594H5.79988V17.7826ZM7.21152 17.7826C7.21152 16.2213 8.47344 14.9594 10.0348 14.9594C11.5962 14.9594 12.8581 16.2213 12.8581 17.7826V24.8408C12.8581 26.4022 11.5962 27.6641 10.0348 27.6641C8.47344 27.6641 7.21152 26.4022 7.21152 24.8408V17.7826Z" fill="#A7BCB4"/>
<path id="Vector_3" d="M10.0347 6.44673C8.47334 6.44673 7.21142 5.18481 7.21142 3.62345C7.21142 2.06209 8.47334 0.800171 10.0347 0.800171C11.5961 0.800171 12.858 2.06209 12.858 3.62345V6.44673H10.0347ZM10.0347 7.87976C11.5961 7.87976 12.858 9.14168 12.858 10.703C12.858 12.2644 11.5961 13.5263 10.0347 13.5263H2.95512C1.39376 13.5263 0.131836 12.2644 0.131836 10.703C0.131836 9.14168 1.39376 7.87976 2.95512 7.87976H10.0347Z" fill="#A7BCB4"/>
<path id="Vector_4" d="M21.349 10.703C21.349 9.14168 22.6109 7.87976 24.1722 7.87976C25.7336 7.87976 26.9955 9.14168 26.9955 10.703C26.9955 12.2644 25.7336 13.5263 24.1722 13.5263H21.349V10.703ZM19.9373 10.703C19.9373 12.2644 18.6754 13.5263 17.1141 13.5263C15.5527 13.5263 14.2908 12.2644 14.2908 10.703V3.62345C14.2908 2.06209 15.5527 0.800171 17.1141 0.800171C18.6754 0.800171 19.9373 2.06209 19.9373 3.62345V10.703Z" fill="#A7BCB4"/>
<path id="Vector_5" d="M17.1141 22.0175C18.6754 22.0175 19.9373 23.2795 19.9373 24.8408C19.9373 26.4022 18.6754 27.6641 17.1141 27.6641C15.5527 27.6641 14.2908 26.4022 14.2908 24.8408V22.0175H17.1141ZM17.1141 20.6059C15.5527 20.6059 14.2908 19.344 14.2908 17.7826C14.2908 16.2213 15.5527 14.9594 17.1141 14.9594H24.1936C25.755 14.9594 27.0169 16.2213 27.0169 17.7826C27.0169 19.344 25.755 20.6059 24.1936 20.6059H17.1141Z" fill="#A7BCB4"/>
</g>
</svg>
