<svg width="107" height="30" viewBox="0 0 107 30" fill="none" xmlns="http://www.w3.org/2000/svg">
<g id="&#240;&#159;&#166;&#134; icon &#34;brand netflix&#34;">
<path id="Vector" d="M106.172 0.792725H101.607L101.501 0.898897L98.6342 8.11862L95.9799 0.792725H91.5206L96.1922 14.0643L90.6712 27.7605C92.1577 27.9729 93.6441 28.079 95.1305 28.2914L98.3157 20.2223L101.395 29.0346L106.172 29.6716L100.758 14.1704L106.172 0.792725ZM82.6021 27.1235C84.0886 27.2297 85.575 27.3358 87.2737 27.5482V0.792725H82.6021V27.1235ZM52.2368 26.0618H56.8022V16.1877H62.217V12.1532H56.8022V5.03962H63.0664V0.792725H52.2368V26.0618ZM34.9307 5.03962H39.0714V26.2741C40.664 26.1679 42.1505 26.1679 43.6369 26.1679V5.03962H47.8838V0.792725H34.9307V5.03962ZM10.4049 17.2494L4.56541 0.792725H0V29.6716C1.48641 29.4593 2.86666 29.2469 4.35307 29.1408V13.2149L9.66169 28.3976C11.3604 28.2914 12.953 28.079 14.6518 27.8667V0.792725H10.4049V17.2494ZM19.6419 23.3013V27.442C23.1456 27.1235 26.7554 26.9111 30.4715 26.6988V22.5581C28.2419 22.6642 26.2246 22.7704 24.2073 22.9828V16.1877H29.6221V12.1532H24.2073V5.03962H30.4715V0.792725H19.6419V23.3013ZM71.9849 0.792725H67.5257V26.2741C71.1355 26.3803 74.7454 26.5926 78.3552 26.805V22.6642L71.9849 22.3457V0.792725Z" fill="#A7BCB4"/>
</g>
</svg>
