<svg width="158" height="25" viewBox="0 0 158 25" fill="none" xmlns="http://www.w3.org/2000/svg">
<g id="&#240;&#159;&#166;&#134; icon &#34;samsung&#34;">
<path id="Vector" d="M130.233 0.982097L130.534 18.6071H130.383L125.284 0.982097H116.884V23.1819H122.433L122.134 4.95745H122.284L127.759 23.1819H135.784V0.982097H130.233ZM24.5579 0.982097L20.3581 23.4077H26.4333L29.5082 3.0074H29.6581L32.6584 23.407H38.6584L34.5332 0.982097H24.5579ZM58.4579 0.982097L55.6834 18.0823H55.5329L52.7583 0.982097H43.6081L43.1579 23.4077H48.783L48.9335 3.23185H49.0081L52.7577 23.407H58.4579L62.2082 3.2325H62.3587L62.5079 23.407H68.1329L67.6081 0.982097H58.4579ZM10.9082 17.032C11.1326 17.5569 11.058 18.3074 10.9828 18.6824C10.8329 19.4323 10.3081 20.1822 8.80761 20.1822C7.38303 20.1822 6.55786 19.3577 6.55786 18.1569V15.9824H0.557861V17.7074C0.557861 22.7323 4.53256 24.2322 8.73302 24.2322C12.783 24.2322 16.1576 22.8069 16.6831 19.132C16.9828 17.1819 16.7577 15.9072 16.6831 15.457C15.6328 10.7323 7.08333 9.38236 6.48261 6.75699C6.40801 6.30678 6.40801 5.85722 6.48261 5.55686C6.63311 4.80694 7.15793 4.05702 8.50791 4.05702C9.85789 4.05702 10.6085 4.88154 10.6085 6.08232V7.43231H16.2329V5.85722C16.2329 0.982096 11.8079 0.232178 8.65776 0.232178C4.68306 0.232178 1.38303 1.58216 0.782968 5.1819C0.632461 6.15692 0.557861 7.05735 0.857567 8.18223C1.75799 12.8322 9.78395 14.1822 10.9082 17.032ZM83.8838 17.032C84.1083 17.5575 84.033 18.2322 83.9584 18.6824C83.8079 19.4323 83.2831 20.1822 81.7833 20.1822C80.358 20.1822 79.5335 19.3577 79.5335 18.1569V15.9824H73.5329V17.7074C73.5329 22.6571 77.433 24.1576 81.6334 24.1576C85.6834 24.1576 88.9834 22.8076 89.5082 19.0574C89.8086 17.1073 89.5835 15.9072 89.5082 15.3824C88.6084 10.7323 80.1329 9.3071 79.5335 6.75764C79.4583 6.30743 79.4583 5.85722 79.5335 5.55686C79.6834 4.80694 80.2082 4.05702 81.5582 4.05702C82.8329 4.05702 83.6587 4.88154 83.6587 6.08232V7.43231H89.2079V5.85722C89.2079 0.982096 84.8582 0.232178 81.7087 0.232178C77.7333 0.232178 74.5079 1.50691 73.9085 5.1819C73.758 6.15692 73.758 7.05735 73.9831 8.18223C74.8835 12.8322 82.7583 14.107 83.8838 17.032ZM102.784 20.0324C104.359 20.0324 104.808 18.9821 104.958 18.382C105.033 18.1576 105.033 17.782 105.033 17.5575V0.982097H110.733V17.1073C110.733 17.5575 110.733 18.382 110.658 18.6071C110.283 22.8076 106.983 24.1576 102.858 24.1576C98.7337 24.1576 95.4336 22.8076 95.058 18.6071C95.058 18.382 94.9834 17.5575 94.9834 17.1073V0.982097H100.683V17.5575C100.683 17.8572 100.683 18.1569 100.758 18.382C100.758 18.9821 101.209 20.0324 102.784 20.0324ZM149.583 19.8073C151.234 19.8073 151.759 18.757 151.908 18.1569C151.984 17.9325 151.984 17.5569 151.984 17.3324V14.107H149.659V10.8069H157.609V16.8076C157.609 17.2572 157.609 17.5569 157.534 18.3074C157.159 22.432 153.633 23.8572 149.659 23.8572C145.683 23.8572 142.159 22.432 141.784 18.3074C141.709 17.5569 141.709 17.2572 141.709 16.8069V7.35771C141.709 6.9821 141.784 6.23218 141.784 5.85722C142.309 1.65676 145.684 0.306778 149.659 0.306778C153.633 0.306778 157.084 1.65676 157.534 5.85722C157.609 6.53188 157.609 7.35706 157.609 7.35706V8.10698H151.984V6.83224C151.984 6.83224 151.984 6.30678 151.908 6.00707C151.834 5.48226 151.384 4.35739 149.659 4.35739C148.009 4.35739 147.558 5.40701 147.409 6.00707C147.334 6.30678 147.334 6.68239 147.334 7.05735V17.3324C147.334 17.6321 147.334 17.9318 147.409 18.1569C147.409 18.757 148.009 19.8073 149.583 19.8073Z" fill="#A7BCB4"/>
</g>
</svg>
