<svg width="107" height="33" viewBox="0 0 107 33" fill="none" xmlns="http://www.w3.org/2000/svg">
<g id="&#240;&#159;&#166;&#134; icon &#34;brand cocal cola&#34;">
<path id="Vector" d="M38.2829 27.1273C36.796 26.8086 35.0967 26.7024 33.2911 26.7024C31.8042 26.5962 30.211 26.7024 27.3434 27.3397C24.4758 27.9769 20.4398 29.2514 17.6784 29.8887C14.917 30.5259 13.6425 30.7384 12.2617 30.7384C11.6245 30.7384 10.9872 30.7384 10.35 30.6321C9.71274 30.5259 9.2879 30.3135 8.86306 30.1011C8.43823 29.9949 8.1196 29.7825 7.69477 29.4638C7.37614 29.2514 7.16372 29.039 6.95131 28.7204C6.63268 28.508 6.52647 28.1893 6.31405 27.8707C6.10163 27.5521 5.99543 27.2335 5.88922 26.8086C5.88922 26.49 5.78301 26.0652 5.78301 25.6403C5.6768 25.2155 5.6768 24.7907 5.78301 24.2596C5.78301 23.6224 5.99543 22.8789 6.31405 21.923C6.52647 20.9671 7.05751 19.7988 7.69477 18.3119C8.33202 16.9312 9.2879 15.2319 10.35 13.5325C11.4121 11.8332 12.5804 10.1338 13.7487 8.75312C14.8108 7.3724 15.8729 6.20411 16.8287 5.35444C17.6784 4.39856 18.5281 3.7613 19.1653 3.23026C19.9088 2.80542 20.4398 2.38059 20.9709 2.16817C21.3957 1.95575 21.9268 1.74333 22.2454 1.63713C22.6702 1.53092 22.9888 1.53092 23.4137 1.53092C23.6261 1.53092 23.7323 1.53092 23.9447 1.63713C24.1571 1.84954 24.1571 2.06196 24.1571 2.27438V2.69921C23.6261 3.01784 22.9888 3.33647 22.564 3.7613L22.1392 4.18614C21.8205 4.61097 21.6081 4.9296 21.6081 5.24823C21.5019 5.56685 21.8205 5.99169 22.033 6.0979C22.6702 6.62894 23.4137 6.31032 24.1571 5.46065C24.3696 5.24823 24.4758 5.03581 24.6882 4.82339C24.7944 4.61097 24.9006 4.29235 25.0068 4.07993C25.4316 3.12405 25.6441 2.06196 25.0068 1.10608C24.9006 0.999873 24.7944 0.787455 24.582 0.681246C24.3696 0.468829 24.0509 0.36262 23.8385 0.256411C23.5199 0.256411 23.2013 0.150202 22.7764 0.150202C22.2454 0.150202 21.6081 0.256411 20.8647 0.468829C20.1212 0.575037 19.3777 0.893664 18.4219 1.21229C17.5722 1.63713 16.5101 2.16817 15.448 2.91163C14.3859 3.65509 13.1114 4.61097 11.8369 5.77927C10.5624 6.94757 9.2879 8.22208 8.01339 9.60279C5.57059 12.4704 3.65883 15.5505 2.59674 17.9933C2.0657 19.2678 1.64086 20.3299 1.32224 21.2858C1.10982 22.2416 0.8974 23.0913 0.8974 23.941C0.791192 25.0031 0.791192 26.0652 1.00361 27.021C1.10982 27.4459 1.21603 27.8707 1.32224 28.1893C1.42844 28.508 1.64086 28.9328 1.85328 29.2514C2.0657 29.5701 2.27812 29.8887 2.59674 30.2073C2.80916 30.4197 3.12779 30.7384 3.55262 30.9508C3.87125 31.1632 4.29608 31.3756 4.82713 31.588C5.35817 31.8004 5.88922 31.9067 6.63268 32.0129C7.37614 32.2253 8.33202 32.2253 9.18169 32.2253C10.5624 32.3315 11.9431 32.2253 14.2797 31.6942C16.7225 31.1632 20.015 30.2073 22.3516 29.6763C24.6882 29.2514 26.1751 29.1452 27.5558 29.1452C28.4055 29.1452 29.2552 29.2514 29.9986 29.3576C30.7421 29.4638 31.2731 29.5701 31.698 29.7825C32.229 29.9949 32.6539 30.3135 33.1849 30.7384C33.7159 31.1632 34.247 31.6942 34.6718 32.2253C36.265 31.1632 37.8581 30.6321 39.0264 30.4197C39.6636 30.3135 40.1947 30.2073 40.7257 30.2073C40.9381 30.2073 41.1506 30.2073 41.363 30.3135C41.6816 30.3135 42.0002 30.4197 42.8499 30.6321C43.6996 30.9508 45.0803 31.4818 46.461 32.0129C45.0803 30.6321 43.5934 29.5701 42.2126 28.7204C40.9381 27.9769 39.6636 27.4459 38.2829 27.1273ZM56.0198 8.43449H52.7273L51.1342 11.4083H54.2142L56.0198 8.43449ZM102.858 3.23026C101.477 3.97372 100.309 4.50477 98.9282 4.9296C97.5475 5.24823 96.0605 5.46065 94.5736 5.35444L91.706 8.75312C92.0246 8.75312 92.237 8.85933 92.3432 8.85933H93.7239C94.6798 8.85933 95.7419 8.75312 96.804 8.43449C98.9282 7.90345 101.265 6.73515 103.177 5.14202C104.132 4.29235 104.876 3.44268 105.513 2.69921C106.15 1.84954 106.681 0.999873 107 0.150202C105.619 1.3185 104.132 2.4868 102.858 3.23026ZM99.1406 24.3658C98.6096 25.2155 97.9723 25.959 97.5475 26.49C97.0164 27.1273 96.6978 27.4459 96.3792 27.7645C96.0605 28.0831 95.8481 28.2955 95.6357 28.4018C95.5295 28.508 95.3171 28.6142 95.2109 28.7204C94.9985 28.8266 94.786 28.9328 94.5736 28.8266C94.3612 28.8266 94.3612 28.6142 94.3612 28.4018C94.3612 28.4018 94.3612 28.508 94.6798 27.8707C94.8922 27.3397 95.3171 26.49 95.8481 25.6403L101.371 16.1877H98.6096L97.7599 17.0374C97.335 16.7188 97.0164 16.5064 96.804 16.4002C96.4854 16.2939 96.3792 16.2939 96.1667 16.1877H95.6357C94.6798 16.1877 93.8302 16.5064 92.8743 17.0374C92.5556 17.2498 92.237 17.4622 91.9184 17.7809C91.4936 17.9933 91.0687 18.4181 90.6439 18.843C90.1128 19.2678 89.5818 19.7988 88.6259 21.0733C87.5638 22.3479 86.1831 24.2596 85.121 25.5341C84.1651 26.9148 83.6341 27.6583 83.2093 28.0831C82.7844 28.508 82.572 28.7204 82.3596 28.8266C82.2534 28.9328 82.041 29.039 81.9348 29.039C81.8286 29.1452 81.7223 29.1452 81.5099 29.1452C81.2975 29.1452 80.9789 28.7204 80.9789 28.508C80.8727 27.9769 80.8727 27.7645 81.0851 27.021C81.1913 26.5962 81.4037 25.959 81.6161 25.1093C81.9348 24.2596 82.2534 23.3037 82.6782 22.2416C84.6962 20.8609 86.8204 19.374 88.3073 18.0995C89.9004 16.825 91.0687 15.6567 92.1308 14.3822C93.2991 13.0015 94.4674 11.5146 95.5295 9.81521L94.255 10.0276C93.4053 11.0897 92.5556 12.258 91.4936 13.4263C90.4315 14.5946 89.2632 15.7629 87.9887 16.9312C86.7142 18.0995 85.2272 19.1616 83.8465 20.2237C84.6962 18.4181 85.7583 16.7188 86.7142 15.0194C87.7763 13.3201 88.8383 11.727 90.0066 10.24C91.0687 8.64691 92.1308 7.2662 93.0867 6.20411C94.0426 5.03581 94.8922 4.07993 95.5295 3.44268C96.273 2.80542 96.804 2.38059 97.2288 2.06196C97.6537 1.74333 97.9723 1.63713 98.1847 1.53092C98.3971 1.42471 98.5033 1.3185 98.7158 1.3185C98.822 1.3185 98.822 1.42471 98.9282 1.42471C99.2468 1.74333 99.1406 1.84954 99.1406 2.16817C99.1406 2.16817 99.1406 2.27438 98.9282 2.59301C98.822 2.91163 98.6096 3.54889 98.3971 4.07993L99.4592 3.97372C99.6716 3.54889 99.8841 3.23026 99.9903 3.01784C100.096 2.80542 100.203 2.69921 100.203 2.4868C100.203 2.38059 100.309 2.16817 100.309 2.06196C100.309 1.53092 100.203 0.999873 99.6716 0.468829C99.5654 0.36262 99.4592 0.256411 99.2468 0.256411C98.6096 0.0439932 98.1847 0.150202 97.4413 0.36262C97.0164 0.468829 96.4854 0.681246 95.8481 0.999873C95.2109 1.3185 94.4674 1.84954 93.5115 2.59301C92.6619 3.33647 91.5998 4.18614 90.4315 5.46065C89.2632 6.73515 87.8825 8.22208 86.5017 10.0276C85.121 11.8332 83.7403 13.9574 82.4658 16.0815C81.1913 18.0995 80.023 20.3299 78.8547 22.5603H77.3678C77.6864 21.923 78.005 21.2858 78.1112 20.8609C78.3237 20.3299 78.4299 20.1175 78.4299 19.7988C78.6423 19.0554 78.6423 18.2057 78.4299 17.5685C78.3237 17.356 78.2175 17.1436 78.1112 17.0374C77.5802 16.4002 77.1554 16.2939 76.5181 16.2939C76.3057 16.2939 75.9871 16.4002 75.6684 16.4002C75.3498 16.5064 75.0312 16.6126 74.6064 16.825C74.0753 17.0374 73.6505 17.356 73.1194 17.6747C72.5884 18.0995 71.9511 18.6305 71.3139 19.2678C70.6766 19.7988 69.9332 20.5423 69.2959 21.392C68.0214 22.9851 66.9593 24.7907 66.3221 26.0652C66.0034 26.8086 65.791 27.4459 65.6848 27.9769C65.5786 28.508 65.4724 28.9328 65.4724 29.3576C65.3662 29.6763 65.3662 30.1011 65.4724 30.4197C65.4724 30.6321 65.5786 30.9508 65.6848 31.1632C65.791 31.3756 66.0034 31.6942 66.2159 31.8004C66.3221 32.0129 66.5345 32.1191 66.8531 32.2253C67.0655 32.3315 67.3841 32.3315 67.5966 32.3315C68.2338 32.3315 68.7649 32.2253 69.5083 31.9067C69.827 31.6942 70.2518 31.3756 70.6766 31.057C71.2077 30.7384 71.7387 30.3135 72.2698 29.6763C72.907 29.039 73.5443 28.2955 74.3939 27.2335C75.1374 26.1714 75.9871 24.8969 76.8367 23.6224H78.3237C77.7926 24.8969 77.3678 26.1714 77.0492 27.021C76.8367 27.8707 76.7305 28.1893 76.7305 28.508C76.6243 29.1452 76.5181 29.7825 76.5181 30.3135C76.6243 30.5259 76.6243 30.7384 76.7305 30.9508C76.7305 31.1632 76.8367 31.3756 76.9429 31.588C77.0492 31.6942 77.2616 31.8004 77.3678 32.0129C77.5802 32.1191 77.7926 32.2253 78.005 32.2253C78.2175 32.3315 78.4299 32.3315 78.6423 32.3315C79.492 32.3315 80.2354 32.1191 81.1913 31.3756C81.6161 31.1632 82.041 30.8446 82.572 30.3135C82.9968 29.8887 83.6341 29.2514 84.1651 28.6142V30.5259C84.2714 30.7384 84.2714 30.9508 84.3776 31.057C84.3776 31.2694 84.4838 31.3756 84.4838 31.4818C84.59 31.6942 84.8024 31.8004 84.9086 32.0129C85.2272 32.1191 85.4397 32.2253 85.8645 32.2253C86.0769 32.2253 86.2893 32.2253 86.5017 32.1191C86.9266 32.1191 87.2452 31.9067 87.7763 31.588C88.0949 31.4818 88.3073 31.2694 88.7321 30.9508C89.157 30.5259 89.688 30.1011 90.1128 29.5701V30.5259C90.1128 30.8446 90.1128 31.057 90.2191 31.1632C90.2191 31.3756 90.2191 31.4818 90.3253 31.588C90.4315 31.9067 90.7501 32.2253 90.9625 32.2253C91.8122 32.5439 92.4494 32.3315 93.4053 31.9067C93.7239 31.6942 94.1488 31.4818 94.5736 31.057C94.9985 30.7384 95.5295 30.3135 96.0605 29.6763C96.5916 29.1452 97.2288 28.4018 97.8661 27.4459C98.6096 26.49 99.2468 25.4279 99.8841 24.2596L99.1406 24.3658ZM74.7126 25.3217L73.438 26.9148C73.0132 27.3397 72.6946 27.7645 72.376 28.0831C72.0573 28.4018 71.7387 28.6142 71.5263 28.8266C71.3139 28.9328 71.1015 29.039 70.9952 29.039C70.7828 29.1452 70.7828 29.1452 70.6766 29.1452C70.358 29.1452 70.0394 29.039 69.7207 28.6142C69.7207 28.508 69.6145 28.4018 69.5083 28.2955C69.4021 27.9769 69.4021 27.6583 69.4021 27.2335C69.5083 26.9148 69.5083 26.5962 69.6145 26.2776C69.7207 25.959 69.827 25.5341 70.0394 25.2155C70.5704 23.941 71.5263 22.5603 72.907 21.392C73.1194 21.6044 73.2256 21.923 73.5443 22.2416L73.9691 22.6665C74.1815 22.7727 74.3939 22.8789 74.7126 23.0913C75.0312 23.1975 75.456 23.4099 75.8809 23.5162C75.456 24.1534 75.1374 24.6844 74.7126 25.3217ZM77.2616 19.5864C77.2616 19.7988 77.2616 19.9051 77.1554 20.1175C77.1554 20.3299 77.1554 20.5423 76.9429 20.9671C76.7305 21.2858 76.5181 21.923 76.1995 22.5603C75.7747 22.4541 75.456 22.2416 75.2436 22.1354C75.0312 22.0292 74.925 21.923 74.7126 21.8168L74.5001 21.6044C74.2877 21.392 74.1815 21.1796 74.1815 20.9671C73.8629 20.0113 73.9691 18.9492 75.2436 18.0995C75.5622 17.8871 75.8809 17.7809 76.1995 17.7809C76.5181 17.7809 76.7305 17.8871 77.0492 18.0995C77.2616 18.3119 77.2616 18.6305 77.3678 18.9492C77.3678 19.1616 77.2616 19.374 77.2616 19.5864ZM91.9184 26.0652C91.5998 26.5962 91.1749 27.2335 90.8563 27.6583L90.0066 28.508C89.7942 28.7204 89.5818 28.8266 89.3694 28.9328C89.0508 29.039 88.6259 29.039 88.4135 28.8266C88.2011 28.6142 88.2011 28.4018 88.2011 27.9769C88.2011 27.8707 88.2011 27.6583 88.3073 27.3397C88.4135 27.1273 88.4135 26.8086 88.5197 26.49C88.7321 26.1714 88.8383 25.7465 89.0508 25.3217C89.2632 24.8969 89.5818 24.472 89.9004 23.941C90.2191 23.4099 90.6439 22.7727 91.0687 22.1354C91.5998 21.4982 92.1308 20.8609 92.6619 20.3299C93.1929 19.7988 93.6177 19.2678 94.0426 18.9492C94.4674 18.6305 94.786 18.3119 95.1047 18.2057C95.3171 17.9933 95.5295 17.8871 95.6357 17.8871C95.7419 17.8871 95.9543 17.7809 96.0605 17.7809C96.1667 17.7809 96.3792 17.7809 96.4854 17.8871C96.6978 18.0995 96.5916 18.3119 96.4854 18.5243C96.4854 18.7368 96.3792 18.9492 96.273 19.1616C96.1667 19.374 95.9543 19.6926 95.8481 20.0113L91.9184 26.0652ZM67.3841 20.7547C67.4904 20.0113 67.5966 19.374 67.7028 18.7368C67.7028 18.3119 67.7028 17.7809 67.5966 17.4622C67.4904 17.2498 67.4904 17.1436 67.3841 17.0374C67.1717 16.7188 66.9593 16.6126 66.6407 16.4002C66.5345 16.4002 66.3221 16.2939 66.1096 16.2939C65.8972 16.1877 65.6848 16.1877 65.3662 16.1877C65.1538 16.1877 64.8351 16.2939 64.5165 16.2939C63.242 16.5064 61.9675 17.2498 60.5868 18.7368C60.1619 19.1616 59.8433 19.5864 59.5247 20.1175C59.0999 20.6485 58.7812 21.1796 58.4626 21.8168C58.144 22.4541 57.9316 23.1975 57.6129 23.941L56.9757 26.1714C57.7191 25.5341 58.4626 25.0031 58.9936 24.5782C59.5247 24.2596 59.8433 24.0472 60.2682 23.8348C60.693 23.6224 61.224 23.3037 61.7551 23.0913C61.9675 22.2416 62.1799 21.392 62.6047 20.6485C62.711 20.3299 62.9234 20.0113 63.0296 19.6926C63.242 19.4802 63.3482 19.2678 63.5606 19.0554C63.9855 18.5243 64.4103 18.3119 64.7289 18.0995C65.3662 17.8871 65.8972 17.7809 66.3221 18.3119C66.5345 18.5243 66.6407 18.7368 66.6407 19.0554C66.6407 20.0113 66.4283 20.9671 66.0034 22.0292C65.791 22.4541 65.5786 22.9851 65.3662 23.5162C65.0476 24.0472 64.7289 24.5782 64.3041 25.1093C63.5606 26.1714 62.4985 27.3397 61.224 28.2955C60.1619 29.2514 58.8874 29.8887 58.144 30.2073C57.7191 30.3135 57.4005 30.3135 57.0819 30.3135C56.8695 30.3135 56.5508 30.3135 56.3384 30.2073C55.8074 30.1011 55.2763 29.6763 54.8515 29.2514C54.6391 28.9328 54.5329 28.7204 54.3205 28.4018C54.108 27.7645 54.0018 27.1273 54.108 26.5962C54.2142 25.8527 54.3205 25.2155 54.7453 24.0472C55.2763 22.8789 55.9136 21.1796 56.8695 19.2678C57.9316 17.4622 59.0999 15.3381 60.2682 13.5325C61.4365 11.727 62.6047 10.24 63.5606 8.96554C64.6227 7.69103 65.4724 6.73515 66.3221 5.99169C67.1717 5.14202 67.809 4.50477 68.4462 4.07993C69.1897 3.54889 69.7207 3.23026 70.2518 2.91163C70.7828 2.59301 71.2077 2.38059 71.6325 2.27438C72.8008 1.74333 73.8629 1.74333 74.925 1.74333C74.0753 2.27438 73.2256 2.91163 72.376 3.54889C70.889 4.71718 69.7207 5.99169 68.9773 7.05378C68.5524 7.69103 68.34 8.11587 68.0214 8.64691C67.809 9.07175 67.7028 9.60279 67.5966 10.0276C67.3841 10.4525 67.3841 10.7711 67.2779 11.0897V11.8332C67.3841 12.0456 67.3841 12.258 67.4904 12.3642C67.4904 12.5766 67.5966 12.6828 67.7028 12.7891C67.809 12.8953 67.9152 13.0015 68.1276 13.1077C68.2338 13.2139 68.34 13.2139 68.5524 13.3201H69.1897C69.7207 13.3201 70.1456 13.2139 70.7828 13.0015C71.1015 12.7891 71.4201 12.6828 71.7387 12.3642C72.1635 12.1518 72.4822 11.8332 72.907 11.4083C73.3318 10.9835 73.7567 10.5587 74.1815 10.0276C74.6064 9.49658 74.925 8.85933 75.2436 8.32828C75.8809 7.2662 76.3057 6.20411 76.5181 5.24823C76.6243 4.71718 76.7305 4.39856 76.7305 3.97372V3.54889V2.80542V2.27438C77.7926 2.27438 78.8547 2.38059 79.8106 2.69921C80.6603 2.91163 81.6161 3.33647 82.8906 4.07993C84.0589 4.9296 85.7583 6.0979 87.3514 7.47861L90.3253 4.29235C89.3694 3.44268 88.3073 2.69921 87.3514 2.06196C86.5017 1.53092 85.7583 1.10608 85.0148 0.787455C84.3776 0.468829 83.7403 0.36262 83.1031 0.150202C82.2534 0.0439931 81.6161 -0.0622157 80.6603 0.0439932C80.2354 0.150202 79.9168 0.150202 79.2795 0.36262C78.6423 0.575037 77.5802 0.893664 76.6243 1.21229C76.0933 0.893664 75.5622 0.575037 75.1374 0.36262C74.7126 0.150202 74.5001 0.150202 74.1815 0.0439932C73.2256 -0.0622157 72.2698 0.0439932 71.1015 0.36262C70.1456 0.681246 69.0835 1.10608 67.809 1.74333C66.6407 2.38059 65.1538 3.33647 63.6668 4.39856C62.1799 5.46065 60.693 6.84136 59.3123 8.22208C57.8254 9.60279 56.5508 11.0897 55.4888 12.4704C54.4267 13.8511 53.577 15.2319 52.8335 16.5064C52.0901 17.7809 51.4528 18.9492 51.028 20.1175C50.6031 21.2858 50.2845 22.2416 49.9659 23.1975C49.7535 24.2596 49.6473 25.1093 49.5411 25.8527C49.4348 26.5962 49.5411 27.1273 49.5411 27.6583C49.6473 28.1893 49.7535 28.7204 49.9659 29.1452C50.1783 29.5701 50.3907 30.1011 50.7094 30.5259C51.1342 30.9508 51.4528 31.2694 51.8777 31.588C52.4087 31.9067 52.8335 32.1191 53.3646 32.2253C54.4267 32.5439 55.4888 32.5439 56.6571 32.2253C57.2943 32.0129 58.0378 31.6942 58.7812 31.2694C60.3744 30.4197 62.1799 29.039 63.5606 27.4459C64.9413 25.959 65.8972 24.2596 66.5345 22.7727C66.9593 22.1354 67.1717 21.392 67.3841 20.7547ZM75.5622 2.69921C75.456 3.33647 75.3498 3.86751 75.1374 4.61097C75.0312 5.24823 74.7126 6.0979 74.3939 6.84136C74.0753 7.58482 73.7567 8.22208 73.438 8.75312C73.1194 9.39037 72.907 9.81521 72.5884 10.1338C71.8449 11.0897 71.2077 11.6208 70.5704 11.9394C69.9332 12.258 69.2959 12.258 68.7649 11.9394C68.6587 11.8332 68.4462 11.6208 68.4462 11.4083C68.34 10.7711 68.4462 10.1338 68.7649 9.39037C68.8711 9.07175 69.0835 8.75312 69.2959 8.43449C69.5083 8.11587 69.7207 7.69103 70.1456 7.2662C70.4642 6.84136 70.889 6.31032 71.4201 5.77927C71.9511 5.24823 72.6946 4.61097 73.3318 4.18614C74.0753 3.65509 74.8188 3.12405 75.5622 2.69921ZM45.93 19.1616C45.3989 19.7988 45.1865 20.0113 44.9741 20.2237C44.7617 20.4361 44.6555 20.5423 44.5492 20.5423C44.3368 20.7547 44.0182 20.7547 43.8058 20.7547C43.6996 20.7547 43.4872 20.6485 43.4872 20.4361C43.5934 20.3299 43.4872 20.3299 43.5934 20.0113C43.6996 19.9051 43.8058 19.5864 44.1244 18.9492C44.443 18.3119 44.9741 17.356 45.5051 16.2939L50.1783 8.32828H47.2045L46.6734 9.07175C46.2486 8.85933 45.8237 8.64691 45.5051 8.43449C45.1865 8.32828 45.0803 8.32828 44.8679 8.32828C44.6555 8.22208 44.443 8.22208 44.2306 8.22208C43.4872 8.22208 42.8499 8.43449 42.0002 8.96554C41.6816 9.17796 41.2568 9.39037 40.8319 9.709C40.4071 10.1338 39.8761 10.5587 38.814 11.727C37.7519 12.8953 36.1587 14.807 34.9904 16.2939C33.7159 17.8871 32.6539 19.0554 31.9104 19.7988C31.2731 20.5423 30.8483 20.8609 30.4235 21.1796C30.1048 21.392 29.8924 21.6044 29.5738 21.7106C29.3614 21.8168 29.149 21.923 28.9365 21.923C28.4055 22.0292 27.8745 22.0292 27.5558 21.7106C27.3434 21.6044 27.2372 21.392 27.2372 21.1796C27.131 20.6485 27.2372 20.1175 27.3434 19.5864C27.3434 19.2678 27.5558 18.9492 27.662 18.5243C27.8745 18.0995 28.0869 17.5685 28.2993 17.0374C28.6179 16.5064 28.9365 15.8691 29.4676 15.2319C30.3173 13.8511 31.5918 12.3642 32.5476 11.4083C33.0787 10.8773 33.5035 10.5587 33.8221 10.3463C34.1408 10.1338 34.3532 10.0276 34.5656 9.92142C34.6718 9.92142 34.778 9.81521 34.8842 9.81521C35.0967 9.81521 35.2029 9.92142 35.4153 10.0276C35.5215 10.1338 35.5215 10.24 35.6277 10.4525V10.9835C35.3091 10.9835 34.9904 11.0897 34.778 11.0897C34.5656 11.1959 34.4594 11.3021 34.247 11.3021C34.1408 11.4083 34.0346 11.5146 33.9284 11.5146C33.2911 12.0456 33.1849 12.6828 33.1849 13.1077C33.1849 13.3201 33.3973 13.5325 33.5035 13.6387C34.0346 14.1698 34.778 13.8511 35.4153 13.0015C35.5215 12.8953 35.7339 12.6828 35.8401 12.4704C36.1587 11.9394 36.4774 11.3021 36.5836 10.8773C36.6898 10.0276 36.6898 9.07175 35.7339 8.43449C35.4153 8.22208 35.0967 8.11587 34.6718 8.11587C34.4594 8.11587 34.1408 8.11587 33.8221 8.22208C33.5035 8.22208 33.1849 8.32828 32.8663 8.5407C32.4414 8.64691 32.1228 8.85933 31.3793 9.39037C30.6359 10.0276 29.4676 10.9835 28.6179 11.727C27.7682 12.4704 27.131 12.8953 26.5999 13.3201C26.0689 13.6387 25.6441 13.8511 25.113 14.0636L23.8385 14.3822C24.1571 13.8511 24.3696 13.3201 24.4758 12.7891C24.6882 12.258 24.7944 11.8332 24.9006 11.5146C25.0068 11.1959 25.0068 10.9835 25.0068 10.7711C25.113 10.3463 25.0068 9.92142 24.9006 9.49658C24.7944 9.39037 24.7944 9.17796 24.6882 9.07175C24.4758 8.75312 24.1571 8.5407 23.9447 8.43449C23.2013 8.11587 22.6702 8.22208 21.9268 8.43449C21.5019 8.43449 21.0771 8.64691 20.546 8.85933C20.1212 9.17796 19.484 9.49658 18.9529 9.92142C18.3157 10.3463 17.6784 10.8773 17.0411 11.5146C16.2977 12.1518 15.6604 12.8953 15.1294 13.6387C13.9611 15.1257 13.0052 16.7188 12.4742 17.9933C12.2617 18.6305 12.0493 19.1616 11.8369 19.6926C11.7307 20.2237 11.6245 20.7547 11.6245 21.0733V22.0292C11.6245 22.3479 11.7307 22.5603 11.8369 22.7727C11.9431 22.9851 11.9431 23.1975 12.0493 23.3037C12.1555 23.5162 12.368 23.6224 12.4742 23.7286C12.6866 23.941 12.899 23.941 13.1114 24.0472C13.3238 24.1534 13.6425 24.1534 13.8549 24.1534C14.0673 24.1534 14.4921 24.1534 14.8108 24.0472C15.1294 23.941 15.448 23.8348 15.8729 23.6224C16.1915 23.5162 16.6163 23.3037 17.0411 22.9851C17.466 22.6665 17.997 22.2416 18.5281 21.7106C19.0591 21.0733 19.8026 20.4361 20.546 19.374C21.3957 18.3119 22.3516 16.9312 23.3075 15.5505L25.5379 15.0194C24.9006 16.1877 24.2634 17.4622 23.9447 18.2057C23.5199 19.0554 23.4137 19.374 23.3075 19.7988C23.0951 20.9671 22.9888 22.1354 23.5199 22.9851C23.7323 23.3037 23.9447 23.5162 24.1571 23.7286C24.4758 23.941 24.6882 24.1534 25.113 24.2596C25.4316 24.3658 25.8565 24.3658 26.1751 24.3658C27.2372 24.3658 28.1931 24.1534 29.3614 23.4099C29.7862 23.0913 30.3173 22.7727 30.9545 22.2416C31.5918 21.6044 32.3352 20.7547 33.1849 19.9051C33.0787 20.6485 33.0787 21.392 33.0787 21.923V22.7727C33.1849 22.9851 33.1849 23.0913 33.1849 23.1975C33.2911 23.3037 33.2911 23.4099 33.3973 23.5162C33.6097 23.8348 33.8221 23.941 34.0346 24.0472C34.8842 24.2596 35.5215 24.1534 36.3712 23.7286C36.6898 23.6224 37.0084 23.4099 37.4333 23.0913C37.8581 22.7727 38.3891 22.3479 38.9202 21.8168V23.0913C39.0264 23.3037 39.0264 23.4099 39.1326 23.6224C39.4512 23.941 39.7698 24.0472 40.1947 24.0472C40.3009 24.1534 40.5133 24.1534 40.7257 24.1534C41.4692 24.1534 42.3189 23.8348 43.2747 23.1975C43.8058 22.8789 44.3368 22.4541 44.8679 21.8168C45.5051 21.2858 46.1424 20.5423 46.7796 19.5864C47.5231 18.7368 48.1603 17.5685 48.7976 16.4002L48.2666 16.2939C47.4169 17.4622 46.5672 18.5243 45.93 19.1616ZM19.5902 19.0554C19.0591 19.7988 18.7405 20.1175 18.5281 20.3299C18.3157 20.5423 18.1032 20.6485 17.997 20.7547C17.8908 20.8609 17.6784 20.9671 17.5722 20.9671C16.9349 21.2858 16.2977 21.2858 15.8729 20.6485C15.7666 20.4361 15.6604 20.1175 15.7666 19.7988C15.7666 19.5864 15.7666 19.2678 15.8729 18.9492C15.9791 18.6305 16.1915 18.2057 16.5101 17.5685C16.8287 17.0374 17.1474 16.4002 17.6784 15.5505C18.2094 14.807 18.8467 14.0636 19.484 13.2139C19.8026 13.6387 20.1212 14.0636 20.4398 14.276C20.6522 14.5946 20.8647 14.7008 21.0771 14.9132C21.2895 15.1257 21.8205 15.2319 22.2454 15.3381C21.1833 16.825 20.2274 18.2057 19.5902 19.0554ZM23.7323 11.6208C23.7323 11.8332 23.7323 12.0456 23.6261 12.258C23.6261 12.4704 23.5199 12.5766 23.4137 13.0015C23.2013 13.3201 22.9888 13.8511 22.7764 14.276L21.8205 13.9574C21.6081 13.8511 21.5019 13.7449 21.2895 13.6387L20.9709 13.3201C20.8647 13.2139 20.8647 13.1077 20.7585 13.0015C20.3336 12.258 20.3336 11.4083 21.1833 10.6649C21.2895 10.5587 21.3957 10.4525 21.6081 10.3463C21.7143 10.24 21.9268 10.1338 22.033 10.0276C22.564 9.92142 22.9888 9.709 23.4137 10.0276C23.8385 10.5587 23.7323 11.0897 23.7323 11.6208ZM40.7257 18.3119C40.4071 18.7368 40.1947 19.1616 39.8761 19.4802C39.6636 19.7988 39.4512 20.0113 39.2388 20.2237C39.1326 20.4361 38.9202 20.5423 38.814 20.6485C38.6015 20.8609 38.3891 20.9671 38.1767 20.9671C37.9643 21.0733 37.5395 21.0733 37.327 20.7547C37.1146 20.4361 37.1146 20.2237 37.1146 19.9051C37.1146 19.7988 37.1146 19.5864 37.2208 19.374C37.327 19.0554 37.4333 18.7368 37.5395 18.3119C37.7519 17.9933 37.9643 17.4622 38.3891 16.825C38.7078 16.2939 39.1326 15.5505 39.7698 14.807C40.3009 14.0636 40.9381 13.2139 41.4692 12.5766L43.0623 10.9835C43.3809 10.5587 43.6996 10.3463 44.0182 10.24C44.2306 10.0276 44.3368 10.0276 44.443 9.92142C44.7617 9.81521 44.9741 9.81521 45.1865 9.92142C45.5051 10.1338 45.3989 10.5587 45.2927 10.8773C45.2927 10.8773 45.2927 10.9835 45.0803 11.3021C44.9741 11.6208 44.6555 12.0456 44.3368 12.5766L40.7257 18.3119Z" fill="#A7BCB4"/>
</g>
</svg>
