<svg width="124" height="32" viewBox="0 0 124 32" fill="none" xmlns="http://www.w3.org/2000/svg">
<g id="&#240;&#159;&#166;&#134; icon &#34;linkedin&#34;">
<g id="Group">
<path id="Vector" d="M0.695679 5.31689H5.47743V22.735H14.332V27.1474H0.695679L0.695679 5.31689Z" fill="#A7BCB4"/>
<path id="Vector_2" d="M18.7418 4.99329C20.2137 4.99329 21.4083 6.18786 21.4083 7.65843C21.4083 9.13136 20.2137 10.3231 18.7418 10.3231C17.2715 10.3231 16.0769 9.13136 16.0769 7.65843C16.0769 6.18786 17.2715 4.99329 18.7418 4.99329ZM16.4435 12.3476H21.0401V27.1417H16.4435V12.3476Z" fill="#A7BCB4"/>
<path id="Vector_3" d="M23.5824 12.3495H27.9945V14.3716H28.0559C28.6681 13.2076 30.1699 11.9827 32.4066 11.9827C37.0644 11.9827 37.9223 15.0459 37.9223 19.0283V27.1419H33.3259V19.9488C33.3259 18.232 33.2942 16.0264 30.9348 16.0264C28.5454 16.0264 28.1786 17.8963 28.1786 19.8257V27.1419H23.5824V12.3495Z" fill="#A7BCB4"/>
<path id="Vector_4" d="M40.2531 5.31555H44.8477V18.3627L50.0531 12.3409H55.6865L49.6581 19.1904L55.5604 27.1473H49.7843L44.9078 19.8343H44.8477V27.1473H40.2531V5.31555Z" fill="#A7BCB4"/>
<path id="Vector_5" d="M69.2514 24.5799C67.7793 26.4498 65.3609 27.5231 62.9698 27.5231C58.3747 27.5231 54.6975 24.4574 54.6975 19.7083C54.6975 14.9593 58.3747 11.8961 62.9698 11.8961C67.262 11.8961 69.9566 14.9593 69.9566 19.7083V21.1485H59.2939C59.659 22.8953 60.9782 24.0292 62.7558 24.0292C64.2578 24.0292 65.2681 23.2628 66.0345 22.2206L69.2514 24.5799ZM65.3609 18.0242C65.391 16.4919 64.1962 15.2052 62.5401 15.2052C60.5186 15.2052 59.4151 16.584 59.2939 18.0242H65.3609Z" fill="#A7BCB4"/>
<path id="Vector_6" d="M87.438 27.1391H83.2082V25.1775H83.1486C82.4416 26.2496 80.6662 27.5066 78.5819 27.5066C74.1683 27.5066 71.2579 24.3211 71.2579 19.8162C71.2579 15.679 73.8316 11.8798 78.0596 11.8798C79.961 11.8798 81.7379 12.4006 82.78 13.8403H82.8403V5.31555H87.438V27.1391ZM79.5293 15.9247C77.233 15.9247 75.8545 17.4581 75.8545 19.6929C75.8545 21.932 77.233 23.462 79.5293 23.462C81.8296 23.462 83.2082 21.932 83.2082 19.6929C83.2082 17.4581 81.8296 15.9247 79.5293 15.9247Z" fill="#A7BCB4"/>
</g>
<path id="Vector_7" d="M120.74 0.732178H94.3221C93.0598 0.732178 92.0342 1.73279 92.0342 2.96655V29.4952C92.0342 30.7301 93.0598 31.7322 94.3221 31.7322H120.74C122.004 31.7322 123.035 30.7301 123.035 29.4952V2.96655C123.035 1.73279 122.004 0.732178 120.74 0.732178Z" fill="#A7BCB4"/>
<path id="Vector_8" d="M98.9303 5C100.401 5 101.595 6.19458 101.595 7.66514C101.595 9.13678 100.401 10.3318 98.9303 10.3318C97.4569 10.3318 96.264 9.13678 96.264 7.66514C96.264 6.19458 97.4569 5 98.9303 5ZM96.6304 12.3541H101.228V27.1482H96.6304V12.3541Z" fill="white"/>
<path id="Vector_9" d="M104.112 12.3541H108.523V14.3753H108.584C109.198 13.2124 110.698 11.986 112.934 11.986C117.591 11.986 118.45 15.05 118.45 19.0333V27.1482H113.855V19.9538C113.855 18.2374 113.824 16.0308 111.466 16.0308C109.073 16.0308 108.707 17.8999 108.707 19.8296V27.1482H104.112V12.3541Z" fill="white"/>
</g>
</svg>
